<svg width="153" height="48" viewBox="0 0 153 48" fill="none" xmlns="http://www.w3.org/2000/svg">
<path d="M0 0H153V36C153 42.6274 147.627 48 141 48H0V0Z" fill="#2E2C30"/>
<path d="M36.6489 23.7016V28.9892C36.6489 29.6946 36.3687 30.371 35.8699 30.8698C35.3711 31.3686 34.6947 31.6488 33.9893 31.6488H26.0105C25.3051 31.6488 24.6286 31.3686 24.1298 30.8698C23.631 30.371 23.3508 29.6946 23.3508 28.9892V23.7016L28.0052 17.6858H31.9946L36.6489 23.7016Z" fill="#9282FA" fill-opacity="0.4"/>
<path d="M39.2844 24.0855L37.9197 16.7716C37.8864 16.5933 37.8169 16.4237 37.7156 16.2733C37.6143 16.1229 37.4833 15.9947 37.3306 15.8968C37.1779 15.7989 37.0069 15.7332 36.8278 15.7038C36.6489 15.6745 36.4658 15.682 36.2898 15.726L36.2641 15.7335L31.899 17.0209H28.1007L23.7356 15.7377L23.7099 15.7302C23.5339 15.6862 23.3508 15.6786 23.1718 15.708C22.9929 15.7373 22.8218 15.803 22.6691 15.9009C22.5165 15.9989 22.3854 16.127 22.2841 16.2775C22.1828 16.4279 22.1134 16.5975 22.08 16.7758L20.7153 24.0855C20.6569 24.3783 20.7003 24.6822 20.8381 24.947C20.9759 25.2117 21.2 25.4216 21.4733 25.5417C21.6483 25.622 21.8384 25.6639 22.031 25.6647C22.2614 25.6646 22.4876 25.6026 22.6859 25.4852V28.9892C22.6859 29.871 23.0362 30.7165 23.6596 31.34C24.2831 31.9635 25.1287 32.3137 26.0104 32.3137H33.9893C34.871 32.3137 35.7166 31.9635 36.34 31.34C36.9636 30.7165 37.3138 29.871 37.3138 28.9892V25.486C37.5119 25.6032 37.7378 25.6652 37.9679 25.6655C38.1606 25.6649 38.3511 25.6233 38.5264 25.5433C38.8 25.4232 39.0243 25.2131 39.1622 24.9479C39.3 24.6828 39.3432 24.3785 39.2844 24.0855ZM22.021 24.3349L23.3865 17.0209L26.8831 18.049L22.021 24.3349ZM33.9893 30.9839H30.6648V29.9292L31.8001 28.7947C31.9248 28.67 31.9949 28.5008 31.9949 28.3243C31.9949 28.1478 31.9248 27.9786 31.8001 27.8539C31.6753 27.7291 31.5061 27.6591 31.3297 27.6591C31.1532 27.6591 30.984 27.7291 30.8592 27.8539L29.9999 28.7141L29.1405 27.8539C29.0157 27.7291 28.8465 27.6591 28.67 27.6591C28.4936 27.6591 28.3244 27.7291 28.1996 27.8539C28.0749 27.9786 28.0047 28.1479 28.0047 28.3243C28.0047 28.5007 28.0749 28.67 28.1996 28.7947L29.3349 29.9292V30.9839H26.0104C25.4814 30.9839 24.974 30.7737 24.5999 30.3997C24.2259 30.0256 24.0157 29.5182 24.0157 28.9892V23.9285L28.3318 18.3507H31.6679L35.984 23.9285V28.9892C35.984 29.5182 35.7738 30.0256 35.3997 30.3997C35.0257 30.7737 34.5183 30.9839 33.9893 30.9839ZM37.9787 24.3349L33.1166 18.049L36.6132 17.0209L37.9787 24.3349ZM28.0051 25.3322C28.0051 25.5295 27.9466 25.7223 27.8371 25.8863C27.7275 26.0503 27.5717 26.1782 27.3895 26.2537C27.2072 26.3292 27.0067 26.3489 26.8132 26.3104C26.6197 26.2719 26.442 26.1769 26.3025 26.0374C26.1631 25.898 26.0681 25.7203 26.0296 25.5268C25.9911 25.3333 26.0109 25.1328 26.0863 24.9506C26.1618 24.7683 26.2897 24.6126 26.4537 24.5029C26.6177 24.3934 26.8105 24.3349 27.0078 24.3349C27.2723 24.3349 27.526 24.4399 27.713 24.627C27.9001 24.814 28.0051 25.0677 28.0051 25.3322ZM33.9893 25.3322C33.9893 25.5295 33.9308 25.7223 33.8212 25.8863C33.7116 26.0503 33.5558 26.1782 33.3736 26.2537C33.1913 26.3292 32.9908 26.3489 32.7974 26.3104C32.6039 26.2719 32.4262 26.1769 32.2867 26.0374C32.1472 25.898 32.0522 25.7203 32.0137 25.5268C31.9752 25.3333 31.995 25.1328 32.0705 24.9506C32.146 24.7683 32.2738 24.6126 32.4378 24.5029C32.6018 24.3934 32.7947 24.3349 32.9919 24.3349C33.2565 24.3349 33.5101 24.4399 33.6971 24.627C33.8842 24.814 33.9893 25.0677 33.9893 25.3322Z" fill="#9282FA"/>
<path d="M45.0133 30V19.6H48.96L50.8933 28.24H51.3733L53.3067 19.6H57.2533V30H55.1733V21.44H54.8267L52.9333 30H49.2267L47.3333 21.44H46.9867V30H45.0133ZM63.599 30.2C62.0967 30.2 60.9767 29.8133 60.239 29.04C59.5101 28.2578 59.1456 27.1422 59.1456 25.6933V19.6H61.4123V25.6267C61.4123 26.48 61.5723 27.1467 61.8923 27.6267C62.2212 28.1067 62.799 28.3467 63.6256 28.3467C64.4612 28.3467 65.039 28.1067 65.359 27.6267C65.679 27.1467 65.839 26.48 65.839 25.6267V19.6H68.0523V25.6933C68.0523 27.1422 67.6878 28.2578 66.959 29.04C66.2301 29.8133 65.1101 30.2 63.599 30.2ZM69.9508 30V19.6H73.8175L77.0442 28.24H77.3642V19.6H79.3908V30H75.4975L72.2842 21.36H71.9775V30H69.9508ZM81.4196 30V19.6H85.1263C86.9751 19.6 88.3174 20.0578 89.1529 20.9733C89.9885 21.88 90.4062 23.1556 90.4062 24.8C90.4062 26.4444 89.9885 27.7244 89.1529 28.64C88.3174 29.5467 86.9751 30 85.1263 30H81.4196ZM83.6596 28.2667H84.9929C85.6774 28.2667 86.2463 28.1644 86.6996 27.96C87.1618 27.7467 87.5085 27.3911 87.7396 26.8933C87.9707 26.3867 88.0863 25.6889 88.0863 24.8C88.0863 23.9111 87.9707 23.2178 87.7396 22.72C87.5085 22.2133 87.1618 21.8578 86.6996 21.6533C86.2463 21.44 85.6774 21.3333 84.9929 21.3333H83.6596V28.2667ZM96.1458 30.1867C95.0436 30.1867 94.1236 29.9689 93.3858 29.5333C92.6569 29.0889 92.1103 28.4622 91.7458 27.6533C91.3903 26.8444 91.2125 25.8933 91.2125 24.8C91.2125 23.6978 91.3903 22.7467 91.7458 21.9467C92.1103 21.1378 92.6569 20.5156 93.3858 20.08C94.1236 19.6356 95.0436 19.4133 96.1458 19.4133C97.2569 19.4133 98.1769 19.6356 98.9058 20.08C99.6347 20.5156 100.177 21.1378 100.533 21.9467C100.897 22.7467 101.079 23.6978 101.079 24.8C101.079 25.8933 100.897 26.8444 100.533 27.6533C100.177 28.4622 99.6347 29.0889 98.9058 29.5333C98.1769 29.9689 97.2569 30.1867 96.1458 30.1867ZM96.1458 28.5067C97.0436 28.5067 97.7014 28.1867 98.1192 27.5467C98.5458 26.8978 98.7592 25.9822 98.7592 24.8C98.7592 23.6089 98.5458 22.6933 98.1192 22.0533C97.7014 21.4133 97.0436 21.0933 96.1458 21.0933C95.2481 21.0933 94.5858 21.4133 94.1592 22.0533C93.7414 22.6933 93.5325 23.6089 93.5325 24.8C93.5325 25.9822 93.7414 26.8978 94.1592 27.5467C94.5858 28.1867 95.2481 28.5067 96.1458 28.5067ZM105.701 30V19.6H110.048C111.381 19.6 112.354 19.8844 112.967 20.4533C113.581 21.0133 113.887 21.7689 113.887 22.72C113.887 23.6711 113.581 24.4311 112.967 25C112.363 25.5689 111.39 25.8533 110.048 25.8533H107.914V30H105.701ZM107.914 24.1733H109.714C110.319 24.1733 110.79 24.0711 111.128 23.8667C111.474 23.6533 111.648 23.2756 111.648 22.7333C111.648 22.2 111.474 21.8267 111.128 21.6133C110.79 21.3911 110.319 21.28 109.714 21.28H107.914V24.1733ZM115.295 30V19.6H122.388V21.36H117.508V23.6533H121.268V25.28H117.508V28.24H122.468V30H115.295ZM126.558 30V21.36H123.478V19.6H131.878V21.36H128.798V30H126.558Z" fill="#9282FA"/>
</svg>
